<svg id="e5nc9mddbrgr1" xmlns="http://www.w3.org/2000/svg" xmlns:xlink="http://www.w3.org/1999/xlink" viewBox="0 0 426 200.810000" shape-rendering="geometricPrecision" text-rendering="geometricPrecision"><defs><path id="e5nc9mddbrgr2" d="M466.940000,243.400000C466.940000,243.400000,470,286.200000,329.360000,289.260000L430.250000,301.490000L473.050000,298.430000L466.940000,243.400000Z"/><linearGradient id="e5nc9mddbrgr5-fill" x1="132.507400" y1="246.006200" x2="174.092800" y2="246.006200" spreadMethod="pad" gradientUnits="userSpaceOnUse"><stop id="e5nc9mddbrgr5-fill-0" offset="0%" stop-color="rgb(89,71,181)"/><stop id="e5nc9mddbrgr5-fill-1" offset="100%" stop-color="rgb(5,122,228)"/></linearGradient><linearGradient id="e5nc9mddbrgr6-fill" x1="138.105400" y1="254.174600" x2="202.882600" y2="254.174600" spreadMethod="pad" gradientUnits="userSpaceOnUse"><stop id="e5nc9mddbrgr6-fill-0" offset="0%" stop-color="rgb(89,71,181)"/><stop id="e5nc9mddbrgr6-fill-1" offset="100%" stop-color="rgb(5,122,228)"/></linearGradient><linearGradient id="e5nc9mddbrgr7-fill" x1="143.703500" y1="259.935500" x2="228.473600" y2="259.935500" spreadMethod="pad" gradientUnits="userSpaceOnUse"><stop id="e5nc9mddbrgr7-fill-0" offset="0%" stop-color="rgb(89,71,181)"/><stop id="e5nc9mddbrgr7-fill-1" offset="100%" stop-color="rgb(5,122,228)"/></linearGradient><linearGradient id="e5nc9mddbrgr8-fill" x1="81.325400" y1="246.391800" x2="122.910800" y2="246.391800" spreadMethod="pad" gradientUnits="userSpaceOnUse"><stop id="e5nc9mddbrgr8-fill-0" offset="0%" stop-color="rgb(89,71,181)"/><stop id="e5nc9mddbrgr8-fill-1" offset="100%" stop-color="rgb(5,122,228)"/></linearGradient><linearGradient id="e5nc9mddbrgr9-fill" x1="52.535600" y1="254.560200" x2="117.312800" y2="254.560200" spreadMethod="pad" gradientUnits="userSpaceOnUse"><stop id="e5nc9mddbrgr9-fill-0" offset="0%" stop-color="rgb(89,71,181)"/><stop id="e5nc9mddbrgr9-fill-1" offset="100%" stop-color="rgb(5,122,228)"/></linearGradient><linearGradient id="e5nc9mddbrgr10-fill" x1="26.944600" y1="260.321100" x2="111.714700" y2="260.321100" spreadMethod="pad" gradientUnits="userSpaceOnUse"><stop id="e5nc9mddbrgr10-fill-0" offset="0%" stop-color="rgb(89,71,181)"/><stop id="e5nc9mddbrgr10-fill-1" offset="100%" stop-color="rgb(5,122,228)"/></linearGradient><linearGradient id="e5nc9mddbrgr13-fill" x1="69.329600" y1="343.603800" x2="69.329600" y2="267.772200" spreadMethod="pad" gradientUnits="userSpaceOnUse"><stop id="e5nc9mddbrgr13-fill-0" offset="0%" stop-color="rgb(89,71,181)"/><stop id="e5nc9mddbrgr13-fill-1" offset="100%" stop-color="rgb(132,182,244)"/></linearGradient><linearGradient id="e5nc9mddbrgr14-fill" x1="84.924100" y1="343.603800" x2="84.924100" y2="253.562400" spreadMethod="pad" gradientUnits="userSpaceOnUse"><stop id="e5nc9mddbrgr14-fill-0" offset="0%" stop-color="rgb(89,71,181)"/><stop id="e5nc9mddbrgr14-fill-1" offset="100%" stop-color="rgb(132,182,244)"/></linearGradient><linearGradient id="e5nc9mddbrgr15-fill" x1="102.118100" y1="342.804000" x2="102.118100" y2="244.799600" spreadMethod="pad" gradientUnits="userSpaceOnUse"><stop id="e5nc9mddbrgr15-fill-0" offset="0%" stop-color="rgb(89,71,181)"/><stop id="e5nc9mddbrgr15-fill-1" offset="100%" stop-color="rgb(132,182,244)"/></linearGradient><linearGradient id="e5nc9mddbrgr16-fill" x1="153.300100" y1="342.418300" x2="153.300100" y2="244.775900" spreadMethod="pad" gradientUnits="userSpaceOnUse"><stop id="e5nc9mddbrgr16-fill-0" offset="0%" stop-color="rgb(89,71,181)"/><stop id="e5nc9mddbrgr16-fill-1" offset="100%" stop-color="rgb(132,182,244)"/></linearGradient><linearGradient id="e5nc9mddbrgr17-fill" x1="170.494000" y1="343.218100" x2="170.494000" y2="253.277600" spreadMethod="pad" gradientUnits="userSpaceOnUse"><stop id="e5nc9mddbrgr17-fill-0" offset="0%" stop-color="rgb(89,71,181)"/><stop id="e5nc9mddbrgr17-fill-1" offset="100%" stop-color="rgb(132,182,244)"/></linearGradient><linearGradient id="e5nc9mddbrgr18-fill" x1="186.088500" y1="343.218100" x2="186.088500" y2="267.246400" spreadMethod="pad" gradientUnits="userSpaceOnUse"><stop id="e5nc9mddbrgr18-fill-0" offset="0%" stop-color="rgb(89,71,181)"/><stop id="e5nc9mddbrgr18-fill-1" offset="100%" stop-color="rgb(132,182,244)"/></linearGradient></defs><g id="e5nc9mddbrgr3" transform="matrix(1 0 0 1 -26.94012260437012 -150.00371551513672)"><g id="e5nc9mddbrgr4"><path id="e5nc9mddbrgr5" d="M174.090000,151.290000C174.090000,151.290000,172.490000,148.090000,170.090000,150.490000L132.500000,223.260000L132.500000,342.420000L174.090000,278.440000L174.090000,151.290000Z" fill="url(#e5nc9mddbrgr5-fill)" stroke="none" stroke-width="1"/><path id="e5nc9mddbrgr6" d="M202.880000,166.480000C202.880000,166.480000,202.080000,164.080000,199.680000,165.680000C197.280000,167.280000,179.690000,184.870000,179.690000,184.870000L179.690000,278.440000L138.100000,343.220000L202.880000,295.240000L202.880000,166.480000Z" fill="url(#e5nc9mddbrgr6-fill)" stroke="none" stroke-width="1"/><path id="e5nc9mddbrgr7" d="M228.470000,177.680000C228.470000,177.680000,226.870000,176.080000,225.270000,176.880000C223.670000,177.680000,208.480000,187.280000,208.480000,187.280000L208.480000,297.640000L143.700000,343.220000L228.470000,308.030000L228.470000,177.680000Z" fill="url(#e5nc9mddbrgr7-fill)" stroke="none" stroke-width="1"/><path id="e5nc9mddbrgr8" d="M81.330000,151.670000C81.330000,151.670000,82.930000,148.470000,85.330000,150.870000L122.920000,223.640000L122.920000,342.800000L81.330000,278.820000L81.330000,151.670000Z" fill="url(#e5nc9mddbrgr8-fill)" stroke="none" stroke-width="1"/><path id="e5nc9mddbrgr9" d="M52.540000,166.870000C52.540000,166.870000,53.340000,164.470000,55.740000,166.070000C58.140000,167.670000,75.730000,185.260000,75.730000,185.260000L75.730000,278.830000L117.320000,343.610000L52.540000,295.630000L52.540000,166.870000Z" fill="url(#e5nc9mddbrgr9-fill)" stroke="none" stroke-width="1"/><path id="e5nc9mddbrgr10" d="M26.940000,178.060000C26.940000,178.060000,28.540000,176.460000,30.140000,177.260000C31.740000,178.060000,46.930000,187.660000,46.930000,187.660000L46.930000,298.020000L111.710000,343.600000L26.940000,308.410000L26.940000,178.060000Z" fill="url(#e5nc9mddbrgr10-fill)" stroke="none" stroke-width="1"/></g><polygon id="e5nc9mddbrgr11" points="143.700000,345.340000 113.310000,345.340000 128.510000,350.410000" opacity="0.8" fill="rgb(89,71,181)" stroke="none" stroke-width="1"/><g id="e5nc9mddbrgr12"><path id="e5nc9mddbrgr13" d="M46.940000,267.770000C39.490000,272.660000,32.770000,278.210000,26.950000,284.310000L26.950000,308.420000L111.720000,343.610000L46.940000,298.030000L46.940000,267.770000Z" fill="url(#e5nc9mddbrgr13-fill)" stroke="none" stroke-width="1"/><path id="e5nc9mddbrgr14" d="M75.730000,253.560000C67.480000,256.500000,59.710000,260.100000,52.540000,264.300000L52.540000,295.620000L117.320000,343.600000L75.730000,278.820000L75.730000,253.560000Z" fill="url(#e5nc9mddbrgr14-fill)" stroke="none" stroke-width="1"/><path id="e5nc9mddbrgr15" d="M81.330000,278.830000L122.920000,342.810000L122.920000,244.810000C108.280000,245.270000,94.280000,247.680000,81.330000,251.710000L81.330000,278.830000Z" fill="url(#e5nc9mddbrgr15-fill)" stroke="none" stroke-width="1"/><path id="e5nc9mddbrgr16" d="M174.090000,251.450000C161.140000,247.500000,147.140000,245.170000,132.500000,244.780000L132.500000,342.420000L174.090000,278.440000L174.090000,251.450000Z" fill="url(#e5nc9mddbrgr16-fill)" stroke="none" stroke-width="1"/><path id="e5nc9mddbrgr17" d="M202.880000,263.840000C195.700000,259.710000,187.930000,256.160000,179.690000,253.280000L179.690000,278.440000L138.100000,343.220000L202.880000,295.240000L202.880000,263.840000Z" fill="url(#e5nc9mddbrgr17-fill)" stroke="none" stroke-width="1"/><path id="e5nc9mddbrgr18" d="M208.480000,267.250000L208.480000,297.640000L143.700000,343.220000L228.470000,308.030000L228.470000,283.480000C222.630000,277.500000,215.920000,272.040000,208.480000,267.250000Z" fill="url(#e5nc9mddbrgr18-fill)" stroke="none" stroke-width="1"/></g><g id="e5nc9mddbrgr19"><g id="e5nc9mddbrgr20"><path id="e5nc9mddbrgr21" d="M273.890000,235.410000C273.730000,235.420000,273.560000,235.420000,273.390000,235.420000L268.370000,235.380000L268.300000,245.630000L266.640000,245.620000L266.850000,216.060000L274.610000,216.120000C276.860000,216.440000,278.770000,217.400000,280.340000,218.990000C282.210000,220.890000,283.130000,223.170000,283.120000,225.830000C283.100000,228.500000,282.140000,230.770000,280.250000,232.640000C278.930000,233.940000,277.430000,234.780000,275.740000,235.180000L282.480000,245.740000L280.430000,245.730000L273.890000,235.410000ZM268.490000,217.760000L268.380000,233.700000L273.400000,233.740000C275.590000,233.760000,277.480000,232.990000,279.040000,231.440000C280.600000,229.890000,281.400000,228.020000,281.420000,225.820000C281.430000,223.610000,280.670000,221.730000,279.120000,220.170000C277.570000,218.610000,275.700000,217.820000,273.510000,217.800000L268.490000,217.760000Z" fill="rgb(89,71,181)" stroke="none" stroke-width="1"/><path id="e5nc9mddbrgr22" d="M301.740000,216.320000L301.730000,217.980000L288.610000,217.880000L288.520000,230.170000L301.640000,230.270000L301.630000,231.930000L288.510000,231.830000L288.420000,244.120000L301.540000,244.210000L301.530000,245.870000L286.750000,245.770000L286.960000,216.210000L301.740000,216.320000Z" fill="rgb(89,71,181)" stroke="none" stroke-width="1"/><path id="e5nc9mddbrgr23" d="M330.230000,241.370000L331.480000,242.500000C328.580000,245.100000,325.170000,246.390000,321.270000,246.360000C317.080000,246.330000,313.530000,244.830000,310.600000,241.860000C307.670000,238.890000,306.220000,235.310000,306.250000,231.120000C306.280000,226.950000,307.780000,223.390000,310.750000,220.460000C313.720000,217.530000,317.300000,216.070000,321.490000,216.100000C325.390000,216.130000,328.780000,217.460000,331.640000,220.110000L330.370000,221.250000C327.850000,218.980000,324.880000,217.830000,321.470000,217.800000C317.760000,217.770000,314.590000,219.060000,311.940000,221.670000C309.300000,224.280000,307.970000,227.430000,307.940000,231.140000C307.910000,234.860000,309.200000,238.040000,311.810000,240.690000C314.410000,243.330000,317.570000,244.660000,321.280000,244.690000C324.700000,244.710000,327.680000,243.600000,330.230000,241.370000Z" fill="rgb(89,71,181)" stroke="none" stroke-width="1"/><path id="e5nc9mddbrgr24" d="M353.910000,216.690000L355.590000,216.700000L355.440000,237.950000C355.120000,240.200000,354.160000,242.110000,352.570000,243.670000C350.670000,245.540000,348.390000,246.460000,345.730000,246.450000C343.050000,246.430000,340.790000,245.470000,338.920000,243.580000C337.050000,241.680000,336.120000,239.400000,336.140000,236.740000L336.280000,216.570000L337.960000,216.580000L337.820000,236.750000C337.800000,238.940000,338.570000,240.830000,340.120000,242.390000C341.670000,243.960000,343.540000,244.750000,345.740000,244.770000C347.940000,244.780000,349.830000,244.020000,351.390000,242.470000C352.950000,240.920000,353.740000,239.050000,353.760000,236.860000L353.910000,216.690000Z" fill="rgb(89,71,181)" stroke="none" stroke-width="1"/><path id="e5nc9mddbrgr25" d="M368.180000,236.080000C368.020000,236.090000,367.850000,236.100000,367.680000,236.090000L362.660000,236.050000L362.590000,246.300000L360.930000,246.290000L361.140000,216.730000L368.900000,216.780000C371.150000,217.110000,373.060000,218.060000,374.630000,219.650000C376.500000,221.550000,377.420000,223.830000,377.410000,226.490000C377.390000,229.160000,376.430000,231.430000,374.540000,233.310000C373.220000,234.610000,371.720000,235.450000,370.030000,235.840000L376.770000,246.400000L374.720000,246.390000L368.180000,236.080000ZM362.780000,218.440000L362.670000,234.380000L367.690000,234.420000C369.880000,234.430000,371.770000,233.670000,373.330000,232.120000C374.900000,230.570000,375.690000,228.700000,375.710000,226.490000C375.720000,224.290000,374.960000,222.400000,373.410000,220.840000C371.860000,219.280000,369.990000,218.490000,367.800000,218.470000L362.780000,218.440000Z" fill="rgb(89,71,181)" stroke="none" stroke-width="1"/><path id="e5nc9mddbrgr26" d="M388.510000,230.130000C386.410000,229.410000,384.750000,228.440000,383.540000,227.210000C382.330000,225.980000,381.730000,224.500000,381.750000,222.760000C381.760000,221.060000,382.380000,219.600000,383.610000,218.390000C384.840000,217.170000,386.320000,216.570000,388.060000,216.580000C389.790000,216.590000,391.260000,217.210000,392.480000,218.440000C393.150000,219.100000,393.610000,219.830000,393.870000,220.650000L392.370000,221.230000C392.150000,220.630000,391.790000,220.070000,391.290000,219.560000C390.390000,218.670000,389.310000,218.210000,388.040000,218.200000C386.770000,218.190000,385.680000,218.630000,384.780000,219.520000C383.880000,220.410000,383.420000,221.490000,383.410000,222.770000C383.400000,224.040000,383.840000,225.130000,384.730000,226.030000C385.560000,226.860000,386.720000,227.620000,388.190000,228.330000C390.550000,229.110000,392.530000,230.310000,394.130000,231.940000C395.830000,233.650000,396.670000,235.710000,396.660000,238.130000C396.640000,240.550000,395.770000,242.620000,394.040000,244.320000C392.320000,246.020000,390.250000,246.860000,387.830000,246.840000C385.420000,246.830000,383.360000,245.950000,381.660000,244.210000C380.300000,242.840000,379.500000,241.240000,379.240000,239.430000L380.810000,238.870000C380.970000,240.470000,381.650000,241.880000,382.830000,243.080000C384.210000,244.480000,385.880000,245.190000,387.840000,245.200000C389.810000,245.210000,391.500000,244.530000,392.900000,243.150000C394.300000,241.770000,395.010000,240.090000,395.020000,238.120000C395.030000,236.160000,394.350000,234.480000,392.970000,233.080000C391.770000,231.850000,390.280000,230.870000,388.510000,230.130000Z" fill="rgb(89,71,181)" stroke="none" stroke-width="1"/><path id="e5nc9mddbrgr27" d="M425.900000,221.220000C428.840000,224.210000,430.300000,227.790000,430.270000,231.980000C430.240000,236.170000,428.730000,239.730000,425.750000,242.670000C422.770000,245.610000,419.180000,247.060000,414.990000,247.030000C410.800000,247,407.240000,245.490000,404.300000,242.510000C401.360000,239.530000,399.910000,235.940000,399.940000,231.750000C399.970000,227.560000,401.470000,224,404.460000,221.060000C407.450000,218.120000,411.030000,216.670000,415.220000,216.700000C419.400000,216.740000,422.970000,218.240000,425.900000,221.220000ZM415.200000,218.410000C411.480000,218.380000,408.300000,219.680000,405.650000,222.290000C403,224.900000,401.660000,228.070000,401.640000,231.780000C401.610000,235.500000,402.900000,238.690000,405.520000,241.340000C408.130000,243.990000,411.290000,245.330000,415.010000,245.360000C418.730000,245.390000,421.910000,244.090000,424.560000,241.480000C427.210000,238.860000,428.550000,235.690000,428.570000,231.970000C428.600000,228.250000,427.300000,225.070000,424.690000,222.420000C422.080000,219.770000,418.920000,218.430000,415.200000,218.410000Z" fill="rgb(89,71,181)" stroke="none" stroke-width="1"/><path id="e5nc9mddbrgr28" d="M442.710000,230.520000C440.610000,229.800000,438.960000,228.830000,437.740000,227.600000C436.530000,226.370000,435.930000,224.890000,435.950000,223.150000C435.960000,221.450000,436.580000,219.990000,437.810000,218.780000C439.040000,217.560000,440.520000,216.960000,442.260000,216.970000C443.980000,216.980000,445.460000,217.600000,446.680000,218.830000C447.350000,219.490000,447.810000,220.230000,448.070000,221.040000L446.570000,221.620000C446.350000,221.010000,445.990000,220.460000,445.490000,219.950000C444.590000,219.060000,443.510000,218.610000,442.250000,218.600000C440.980000,218.590000,439.890000,219.030000,438.990000,219.910000C438.090000,220.800000,437.630000,221.880000,437.620000,223.160000C437.610000,224.430000,438.050000,225.520000,438.940000,226.420000C439.770000,227.250000,440.930000,228.020000,442.400000,228.720000C444.760000,229.500000,446.740000,230.710000,448.340000,232.330000C450.040000,234.040000,450.880000,236.100000,450.870000,238.520000C450.850000,240.950000,449.980000,243.010000,448.250000,244.710000C446.530000,246.410000,444.460000,247.250000,442.050000,247.230000C439.640000,247.210000,437.580000,246.330000,435.880000,244.600000C434.520000,243.230000,433.720000,241.630000,433.460000,239.820000L435.030000,239.260000C435.190000,240.860000,435.870000,242.260000,437.050000,243.470000C438.430000,244.870000,440.100000,245.580000,442.060000,245.590000C444.030000,245.600000,445.720000,244.920000,447.120000,243.540000C448.520000,242.160000,449.230000,240.480000,449.240000,238.510000C449.250000,236.550000,448.570000,234.870000,447.190000,233.470000C445.970000,232.240000,444.480000,231.260000,442.710000,230.520000Z" fill="rgb(89,71,181)" stroke="none" stroke-width="1"/><path id="e5nc9mddbrgr29" d="M263.610000,288.490000L263.840000,255.880000L268.970000,255.920000C271.940000,255.940000,274.120000,256.150000,275.490000,256.540000C277.440000,257.070000,278.980000,258.040000,280.130000,259.460000C281.280000,260.870000,281.840000,262.530000,281.830000,264.440000C281.820000,265.680000,281.550000,266.810000,281.020000,267.810000C280.490000,268.820000,279.630000,269.760000,278.440000,270.640000C280.410000,271.590000,281.850000,272.760000,282.760000,274.170000C283.660000,275.570000,284.110000,277.230000,284.100000,279.130000C284.090000,280.960000,283.600000,282.630000,282.640000,284.130000C281.680000,285.630000,280.450000,286.750000,278.950000,287.490000C277.450000,288.220000,275.380000,288.580000,272.750000,288.560000L263.610000,288.490000ZM269.920000,274.250000L269.860000,282.610000L271.420000,282.620000C274,282.640000,275.740000,282.320000,276.640000,281.680000C277.540000,281.040000,277.990000,280.090000,278,278.850000C278.010000,277.450000,277.490000,276.330000,276.450000,275.520000C275.400000,274.700000,273.660000,274.280000,271.210000,274.260000L269.920000,274.250000ZM270.010000,261.840000L269.960000,268.710000L271.320000,268.720000C272.830000,268.730000,273.960000,268.420000,274.700000,267.790000C275.440000,267.160000,275.810000,266.300000,275.820000,265.200000C275.830000,264.180000,275.490000,263.370000,274.790000,262.770000C274.100000,262.170000,273.040000,261.860000,271.610000,261.850000L270.010000,261.840000Z" fill="rgb(89,71,181)" stroke="none" stroke-width="1"/><path id="e5nc9mddbrgr30" d="M289.740000,256.060000L295.900000,256.100000L295.670000,288.710000L289.510000,288.670000L289.740000,256.060000Z" fill="rgb(89,71,181)" stroke="none" stroke-width="1"/><path id="e5nc9mddbrgr31" d="M302.650000,288.770000L302.880000,256.160000L308.010000,256.200000C310.980000,256.220000,313.160000,256.430000,314.530000,256.820000C316.480000,257.350000,318.020000,258.320000,319.170000,259.730000C320.320000,261.140000,320.880000,262.800000,320.870000,264.710000C320.860000,265.950000,320.590000,267.070000,320.060000,268.080000C319.530000,269.090000,318.670000,270.030000,317.480000,270.910000C319.450000,271.860000,320.890000,273.030000,321.800000,274.440000C322.700000,275.840000,323.150000,277.500000,323.140000,279.400000C323.130000,281.230000,322.640000,282.900000,321.680000,284.400000C320.720000,285.900000,319.490000,287.020000,317.990000,287.760000C316.490000,288.490000,314.420000,288.850000,311.790000,288.830000L302.650000,288.770000ZM308.960000,274.540000L308.900000,282.900000L310.460000,282.910000C313.040000,282.930000,314.780000,282.610000,315.680000,281.970000C316.580000,281.330000,317.030000,280.380000,317.040000,279.140000C317.050000,277.740000,316.530000,276.620000,315.490000,275.810000C314.440000,274.990000,312.700000,274.570000,310.250000,274.550000L308.960000,274.540000ZM309.050000,262.120000L309,268.990000L310.360000,269C311.870000,269.010000,313,268.700000,313.740000,268.070000C314.480000,267.440000,314.850000,266.580000,314.860000,265.480000C314.870000,264.460000,314.530000,263.650000,313.830000,263.050000C313.140000,262.440000,312.080000,262.140000,310.650000,262.130000L309.050000,262.120000Z" fill="rgb(89,71,181)" stroke="none" stroke-width="1"/><path id="e5nc9mddbrgr32" d="M329.220000,256.340000L335.430000,256.380000L335.240000,283.070000L344.280000,283.140000L344.240000,289.060000L328.990000,288.950000L329.220000,256.340000Z" fill="rgb(89,71,181)" stroke="none" stroke-width="1"/><path id="e5nc9mddbrgr33" d="M348.750000,256.480000L354.910000,256.520000L354.680000,289.130000L348.520000,289.090000L348.750000,256.480000Z" fill="rgb(89,71,181)" stroke="none" stroke-width="1"/><path id="e5nc9mddbrgr34" d="M391.830000,262.520000L387.460000,266.630000C384.530000,263.490000,381.220000,261.900000,377.520000,261.880000C374.410000,261.860000,371.770000,262.900000,369.620000,265.020000C367.470000,267.140000,366.390000,269.760000,366.360000,272.880000C366.350000,275.060000,366.800000,276.990000,367.730000,278.680000C368.660000,280.370000,369.990000,281.710000,371.710000,282.680000C373.430000,283.650000,375.350000,284.150000,377.460000,284.160000C379.260000,284.170000,380.910000,283.850000,382.410000,283.180000C383.900000,282.520000,385.550000,281.310000,387.350000,279.540000L391.520000,283.960000C389.090000,286.290000,386.810000,287.910000,384.660000,288.800000C382.510000,289.690000,380.060000,290.130000,377.310000,290.110000C372.240000,290.070000,368.110000,288.440000,364.900000,285.200000C361.690000,281.960000,360.110000,277.830000,360.140000,272.810000C360.160000,269.560000,360.920000,266.670000,362.410000,264.160000C363.900000,261.640000,366.020000,259.620000,368.780000,258.110000C371.530000,256.590000,374.490000,255.840000,377.650000,255.870000C380.340000,255.890000,382.930000,256.480000,385.410000,257.630000C387.910000,258.790000,390.040000,260.420000,391.830000,262.520000Z" fill="rgb(89,71,181)" stroke="none" stroke-width="1"/><path id="e5nc9mddbrgr35" d="M412.700000,256.120000C417.310000,256.150000,421.270000,257.850000,424.560000,261.220000C427.860000,264.580000,429.490000,268.670000,429.450000,273.470000C429.410000,278.230000,427.750000,282.240000,424.450000,285.520000C421.150000,288.790000,417.170000,290.410000,412.490000,290.370000C407.600000,290.340000,403.540000,288.610000,400.330000,285.210000C397.110000,281.800000,395.520000,277.770000,395.560000,273.110000C395.580000,269.990000,396.360000,267.130000,397.890000,264.530000C399.420000,261.920000,401.510000,259.870000,404.160000,258.360000C406.810000,256.850000,409.660000,256.100000,412.700000,256.120000ZM412.590000,262.200000C409.570000,262.180000,407.020000,263.210000,404.960000,265.290000C402.890000,267.370000,401.840000,270.030000,401.820000,273.270000C401.790000,276.880000,403.070000,279.740000,405.640000,281.850000C407.640000,283.510000,409.940000,284.340000,412.550000,284.360000C415.500000,284.380000,418.010000,283.340000,420.100000,281.220000C422.190000,279.110000,423.240000,276.490000,423.260000,273.370000C423.280000,270.270000,422.260000,267.630000,420.190000,265.470000C418.110000,263.310000,415.580000,262.220000,412.590000,262.200000Z" fill="rgb(89,71,181)" stroke="none" stroke-width="1"/><path id="e5nc9mddbrgr36" d="M452.520000,261.660000L447.890000,265.680000C446.290000,263.420000,444.660000,262.290000,442.980000,262.270000C442.170000,262.260000,441.500000,262.480000,440.980000,262.910000C440.460000,263.340000,440.200000,263.830000,440.190000,264.380000C440.190000,264.930000,440.370000,265.450000,440.730000,265.940000C441.230000,266.590000,442.730000,268,445.250000,270.160000C447.600000,272.160000,449.030000,273.410000,449.530000,273.940000C450.780000,275.220000,451.660000,276.440000,452.180000,277.610000C452.700000,278.770000,452.950000,280.040000,452.940000,281.420000C452.920000,284.100000,451.980000,286.300000,450.120000,288.030000C448.260000,289.760000,445.840000,290.620000,442.870000,290.590000C440.550000,290.580000,438.530000,289.990000,436.810000,288.840000C435.100000,287.690000,433.630000,285.890000,432.420000,283.450000L437.660000,280.340000C439.210000,283.230000,441,284.690000,443.040000,284.700000C444.110000,284.710000,445,284.400000,445.730000,283.790000C446.460000,283.170000,446.830000,282.460000,446.830000,281.650000C446.830000,280.910000,446.560000,280.170000,446.020000,279.430000C445.480000,278.690000,444.280000,277.550000,442.420000,276.010000C438.890000,273.090000,436.610000,270.840000,435.590000,269.260000C434.570000,267.680000,434.060000,266.100000,434.070000,264.540000C434.090000,262.280000,434.960000,260.350000,436.700000,258.740000C438.430000,257.130000,440.570000,256.340000,443.100000,256.360000C444.730000,256.370000,446.280000,256.760000,447.750000,257.520000C449.230000,258.270000,450.810000,259.660000,452.520000,261.660000Z" fill="rgb(89,71,181)" stroke="none" stroke-width="1"/></g></g><g id="e5nc9mddbrgr37" opacity="0.5"><path id="e5nc9mddbrgr38" d="M90.180000,328.450000C89.740000,329.320000,89.330000,330.160000,88.910000,330.880000C88.410000,331.380000,88.660000,332.380000,88.410000,333.130000C88.370000,333.370000,88.320000,333.640000,88.280000,333.880000L111.710000,343.610000L90.180000,328.450000Z" fill="rgb(221,255,255)" stroke="none" stroke-width="1"/><g id="e5nc9mddbrgr39"><path id="e5nc9mddbrgr40" d="M85.070000,293.380000L80.890000,286.870000C76.510000,289.050000,71.880000,289.850000,68.690000,293.940000C69.190000,293.940000,69.940000,293.940000,70.440000,294.440000C69.690000,294.940000,68.940000,295.690000,68.190000,296.190000C69.940000,295.690000,71.680000,295.440000,73.430000,296.440000C72.680000,296.940000,71.930000,297.190000,71.430000,297.440000L81.160000,293.700000C81.410000,293.700000,81.660000,293.950000,81.910000,293.950000C81.910000,294.450000,81.660000,294.700000,81.660000,294.700000C82.580000,294.390000,83.790000,293.880000,85.070000,293.380000Z" fill="rgb(221,255,255)" stroke="none" stroke-width="1"/><path id="e5nc9mddbrgr41" d="M99.190000,315.370000C98.310000,316.100000,97.400000,317.560000,97.400000,318.650000C97.400000,319.400000,97.900000,319.400000,97.900000,319.650000C95.280000,320.570000,93.500000,322.650000,92.100000,324.930000L117.320000,343.610000L99.190000,315.370000Z" fill="rgb(221,255,255)" stroke="none" stroke-width="1"/><path id="e5nc9mddbrgr42" d="M80.100000,285.630000L79.680000,284.980000C79.420000,285.060000,79.160000,285.140000,78.930000,285.200000C79.290000,285.380000,79.700000,285.500000,80.100000,285.630000Z" fill="rgb(221,255,255)" stroke="none" stroke-width="1"/><path id="e5nc9mddbrgr43" d="M61.210000,301.930000C62.210000,301.680000,62.210000,301.430000,62.710000,301.180000L61.210000,301.930000Z" fill="rgb(221,255,255)" stroke="none" stroke-width="1"/></g><path id="e5nc9mddbrgr44" d="M122.910000,278.640000L102.640000,277.720000C95.650000,277.720000,94.400000,279.220000,86.420000,281.210000C86.670000,281.710000,86.670000,282.460000,86.670000,282.960000C87.170000,282.960000,87.420000,282.960000,87.670000,283.210000C86.940000,283.700000,85.740000,284.410000,84.980000,284.450000L89.890000,292.010000C90.150000,291.980000,90.410000,291.950000,90.660000,291.950000C91.160000,291.950000,95.650000,293.700000,97.900000,293.950000C97.650000,294.700000,97.650000,295.450000,97.900000,296.200000L98.900000,296.200000C99.150000,295.950000,99.150000,295.450000,99.900000,295.450000C100.400000,295.450000,100.150000,295.950000,100.150000,295.950000L101.150000,294.950000L101.650000,295.450000L101.650000,296.450000C100.900000,296.700000,99.900000,296.950000,99.650000,297.950000C100.150000,297.950000,100.650000,297.450000,101.150000,296.950000L101.650000,297.450000L101.650000,298.450000C100.650000,299.950000,99.150000,298.700000,98.160000,299.950000C98.660000,299.950000,99.160000,299.700000,99.660000,299.700000C100.160000,300.200000,100.660000,300.450000,100.660000,301.200000C100.660000,301.700000,99.660000,303.200000,99.160000,304.190000L99.160000,304.440000C99.410000,304.940000,98.910000,304.940000,98.910000,305.440000C98.910000,306.040000,99.370000,306.480000,99.560000,306.880000L122.920000,342.820000L122.920000,278.640000Z" fill="rgb(221,255,255)" stroke="none" stroke-width="1"/><g id="e5nc9mddbrgr45"><path id="e5nc9mddbrgr46" d="M149.810000,269.480000C149.810000,269.730000,150.060000,269.980000,150.060000,270.230000L153.300000,270.230000L153.800000,269.730000C153.550000,269.480000,153.300000,269.480000,153.300000,269.230000L151.800000,269.230000C151.300000,269.730000,151.050000,269.980000,150.550000,269.980000C149.810000,269.980000,150.060000,269.730000,149.810000,269.480000Z" fill="rgb(221,255,255)" stroke="none" stroke-width="1"/><path id="e5nc9mddbrgr47" d="M152.550000,267.490000C152.050000,267.240000,151.550000,266.990000,151.050000,266.990000C150.300000,266.990000,150.050000,267.490000,150.050000,267.740000C150.550000,267.990000,150.550000,268.240000,151.300000,268.240000C151.800000,268.230000,152.300000,267.980000,152.550000,267.490000Z" fill="rgb(221,255,255)" stroke="none" stroke-width="1"/><path id="e5nc9mddbrgr48" d="M155.550000,296.940000L155.550000,295.940000C155.050000,294.940000,153.550000,293.690000,153.550000,292.950000C153.550000,290.950000,158.290000,288.210000,158.540000,285.710000C159.290000,285.460000,160.040000,285.210000,160.790000,284.710000C161.540000,284.210000,162.290000,283.210000,162.540000,282.460000C162.790000,281.960000,162.790000,281.460000,163.040000,281.210000C163.540000,281.460000,164.290000,281.460000,164.790000,281.710000C165.040000,280.960000,166.040000,280.210000,166.790000,279.710000C166.290000,279.210000,165.540000,279.210000,165.540000,278.460000C165.540000,277.960000,166.040000,278.460000,166.040000,277.960000C166.040000,277.210000,165.290000,277.210000,165.290000,276.960000C166.040000,276.460000,166.540000,275.710000,167.290000,275.710000C167.790000,275.710000,170.530000,277.210000,172.030000,277.960000C172.620000,278.350000,173.200000,278.900000,173.420000,279.490000L174.100000,278.440000L174.100000,275.790000C171.970000,274.880000,169.660000,274.140000,167.780000,272.970000C167.030000,272.720000,167.030000,271.970000,166.530000,271.970000C165.780000,271.970000,165.780000,272.470000,165.530000,272.470000C166.030000,272.720000,166.530000,272.970000,166.780000,273.470000L165.530000,273.720000C165.030000,273.220000,164.280000,272.470000,163.530000,272.470000C163.030000,272.470000,162.530000,273.720000,162.030000,273.720000C161.280000,273.720000,161.530000,273.470000,161.530000,273.470000C161.530000,272.970000,161.780000,272.470000,161.530000,271.970000C160.780000,272.470000,159.530000,273.220000,159.530000,273.970000C159.530000,274.470000,160.530000,274.720000,161.030000,275.220000C160.780000,275.470000,160.530000,275.470000,160.280000,275.470000C161.530000,275.970000,162.780000,276.220000,164.020000,276.970000C162.520000,277.720000,163.770000,280.210000,162.020000,280.460000C161.520000,279.460000,161.020000,278.460000,160.520000,277.960000C160.270000,278.210000,159.770000,278.710000,159.520000,278.710000C158.770000,277.960000,156.280000,275.220000,156.280000,274.220000C156.280000,273.470000,157.780000,272.720000,158.280000,272.220000C158.030000,271.970000,157.780000,271.720000,157.030000,271.720000C155.780000,271.720000,155.280000,274.960000,155.280000,275.710000C155.280000,276.210000,155.280000,276.460000,156.530000,277.710000C156.030000,278.710000,155.530000,279.960000,155.030000,280.950000C154.780000,280.700000,154.530000,280.200000,154.530000,279.950000C154.780000,279.700000,154.280000,279.700000,145.300000,279.700000C143.550000,279.700000,143.050000,280.950000,143.050000,280.950000C142.300000,280.950000,142.300000,280.700000,137.310000,280.700000C137.060000,278.200000,135.310000,278.950000,134.810000,278.950000L132.480000,278.950000L132.480000,342.400000L161.720000,297.420000C159.450000,296.870000,157.340000,296.740000,155.550000,296.940000Z" fill="rgb(221,255,255)" stroke="none" stroke-width="1"/><path id="e5nc9mddbrgr49" d="M154.300000,267.240000C153.550000,267.240000,153.800000,267.490000,153.550000,267.490000C154.050000,267.740000,154.800000,267.740000,155.300000,267.740000C155.050000,267.490000,154.800000,267.240000,154.300000,267.240000Z" fill="rgb(221,255,255)" stroke="none" stroke-width="1"/><path id="e5nc9mddbrgr50" d="M171.090000,283.060000L171.440000,282.520000C171.250000,282.660000,171.140000,282.840000,171.090000,283.060000Z" fill="rgb(221,255,255)" stroke="none" stroke-width="1"/><path id="e5nc9mddbrgr51" d="M165.280000,283.210000C164.530000,283.210000,163.530000,284.710000,162.530000,285.460000C164.530000,285.210000,166.020000,284.710000,167.270000,284.710000C166.780000,283.960000,165.780000,283.210000,165.280000,283.210000Z" fill="rgb(221,255,255)" stroke="none" stroke-width="1"/><path id="e5nc9mddbrgr52" d="M166.030000,287.450000C166.780000,287.450000,167.030000,287.200000,167.280000,287.200000L167.030000,286.450000C166.530000,286.700000,166.030000,286.950000,166.030000,287.450000Z" fill="rgb(221,255,255)" stroke="none" stroke-width="1"/><path id="e5nc9mddbrgr53" d="M169.270000,268.480000C170.520000,268.950000,172.340000,268.830000,174.090000,269.220000L174.090000,262.200000C173.380000,261.930000,172.850000,261.730000,171.770000,261.730000L171.020000,261.730000C170.770000,262.480000,169.520000,262.230000,169.520000,262.980000C169.520000,263.480000,169.520000,263.480000,169.270000,263.480000C168.520000,263.480000,167.520000,263.980000,167.020000,263.980000C166.770000,263.980000,165.770000,262.980000,164.030000,262.980000C161.780000,262.980000,158.040000,263.980000,156.790000,264.980000L155.040000,264.980000C155.040000,265.230000,154.540000,265.730000,154.290000,265.980000C155.290000,266.480000,157.280000,267.730000,158.780000,266.980000C159.030000,266.980000,159.530000,267.230000,159.530000,267.730000C159.530000,268.480000,159.530000,268.230000,159.280000,268.480000C159.280000,268.730000,158.780000,268.730000,158.780000,268.730000C159.780000,268.730000,161.280000,268.480000,162.020000,268.480000C162.520000,268.480000,162.770000,268.980000,163.270000,268.980000C164.020000,268.980000,163.770000,268.730000,164.020000,268.730000C164.020000,268.480000,163.770000,268.230000,163.520000,267.980000C163.520000,267.730000,164.270000,267.230000,164.770000,266.980000C164.270000,266.730000,163.770000,266.230000,163.770000,265.730000C164.520000,265.230000,165.270000,264.480000,166.020000,264.480000C166.520000,264.480000,167.520000,265.230000,167.770000,265.730000C167.020000,266.480000,166.270000,266.480000,165.520000,266.480000C167.030000,267.240000,168.030000,267.980000,169.270000,268.480000Z" fill="rgb(221,255,255)" stroke="none" stroke-width="1"/><path id="e5nc9mddbrgr54" d="M140.070000,270.730000L140.570000,271.230000C141.570000,271.730000,142.820000,272.480000,143.560000,272.480000C144.060000,272.480000,145.060000,271.480000,146.060000,271.230000C146.560000,270.980000,147.560000,271.230000,148.060000,271.230000C148.060000,270.730000,148.060000,270.480000,148.310000,270.230000C147.560000,270.480000,147.060000,269.480000,146.560000,269.480000L146.060000,269.980000C146.310000,269.980000,146.560000,269.480000,146.560000,270.230000C146.560000,270.730000,145.810000,270.730000,145.060000,270.730000C144.560000,270.730000,144.060000,270.480000,143.560000,270.230000C143.810000,269.980000,143.810000,269.730000,143.560000,269.480000C143.060000,269.230000,141.810000,268.730000,141.060000,268.730000C139.560000,268.730000,138.560000,269.730000,137.320000,270.730000C138.580000,270.730000,139.330000,270.980000,140.070000,270.730000Z" fill="rgb(221,255,255)" stroke="none" stroke-width="1"/><path id="e5nc9mddbrgr55" d="M132.510000,275.170000C133.730000,274.640000,135.650000,274.220000,136.580000,274.220000C137.330000,274.220000,137.080000,274.470000,137.330000,274.720000C137.080000,274.970000,136.830000,275.470000,136.830000,275.720000C137.330000,275.720000,137.830000,275.720000,138.330000,276.220000C137.830000,276.720000,137.080000,276.220000,137.080000,276.970000C137.080000,277.470000,136.830000,277.470000,136.830000,277.720000C137.580000,277.970000,140.070000,278.970000,141.320000,278.970000C142.070000,278.970000,145.310000,277.970000,145.810000,277.970000C146.560000,277.970000,146.560000,278.720000,147.060000,278.720000C147.810000,278.720000,149.310000,277.720000,150.300000,277.220000C147.800000,276.470000,148.050000,275.220000,148.050000,274.470000C148.050000,273.720000,148.050000,273.470000,148.300000,273.220000C148.550000,273.220000,148.800000,273.220000,149.050000,272.970000C148.800000,272.970000,148.550000,272.720000,148.050000,272.720000C147.550000,272.720000,145.800000,275.220000,145.800000,275.470000L145.300000,274.970000L145.300000,274.220000C142.060000,274.470000,141.310000,274.470000,140.810000,274.220000C140.810000,273.970000,141.060000,273.720000,140.810000,273.470000C140.060000,272.220000,139.060000,272.470000,137.820000,272.470000C137.650000,272.470000,134.510000,272.600000,132.500000,273.300000L132.500000,275.170000Z" fill="rgb(221,255,255)" stroke="none" stroke-width="1"/><path id="e5nc9mddbrgr56" d="M155.050000,273.720000L154.550000,273.220000C153.800000,273.220000,153.300000,272.970000,153.300000,272.970000C153.550000,272.720000,153.800000,272.470000,153.800000,272.220000L152.300000,272.220000C151.050000,272.470000,151.550000,273.220000,151.050000,274.470000L153.550000,274.470000C154.300000,274.470000,154.800000,273.970000,155.050000,273.720000Z" fill="rgb(221,255,255)" stroke="none" stroke-width="1"/><path id="e5nc9mddbrgr57" d="M145.070000,268.730000C145.820000,268.730000,146.320000,268.230000,146.570000,268.230000C145.570000,267.730000,145.320000,267.980000,145.070000,267.980000L145.070000,268.730000Z" fill="rgb(221,255,255)" stroke="none" stroke-width="1"/><path id="e5nc9mddbrgr58" d="M155.300000,278.470000C154.800000,278.220000,154.300000,277.720000,153.550000,277.720000C153.050000,277.720000,152.800000,277.720000,152.300000,278.220000C153.050000,278.470000,153.550000,278.720000,154.300000,278.720000C154.800000,278.720000,155.050000,278.720000,155.300000,278.470000Z" fill="rgb(221,255,255)" stroke="none" stroke-width="1"/><path id="e5nc9mddbrgr59" d="M157.790000,270.730000C158.040000,270.980000,158.040000,271.230000,158.540000,271.230000C159.290000,271.230000,159.040000,270.730000,159.540000,270.730000C160.290000,270.730000,161.790000,271.230000,162.530000,271.230000C163.030000,271.230000,163.780000,270.980000,164.280000,270.980000C162.030000,270.980000,158.290000,270.230000,158.290000,269.730000C158.290000,268.730000,157.290000,269.480000,156.290000,268.980000L155.040000,268.980000C155.540000,269.230000,156.290000,269.230000,156.790000,269.480000C157.290000,269.730000,157.540000,270.480000,157.790000,270.730000Z" fill="rgb(221,255,255)" stroke="none" stroke-width="1"/><path id="e5nc9mddbrgr60" d="M155.800000,270.480000L154.800000,270.480000L154.800000,270.980000L156.550000,270.980000C156.300000,270.730000,156.050000,270.730000,155.800000,270.480000Z" fill="rgb(221,255,255)" stroke="none" stroke-width="1"/></g><g id="e5nc9mddbrgr61"><path id="e5nc9mddbrgr62" d="M194.730000,300.930000C194.480000,300.680000,193.480000,300.180000,193.480000,299.680000C193.480000,298.680000,192.480000,298.930000,191.480000,298.180000C190.230000,297.680000,189.230000,296.930000,188.730000,296.430000C188.230000,295.680000,187.980000,294.680000,187.730000,293.930000C186.730000,293.180000,185.480000,291.930000,184.740000,290.940000C184.990000,292.190000,183.490000,292.440000,182.490000,293.690000C181.740000,292.940000,180.490000,292.690000,179.990000,292.190000C179.240000,290.940000,178.740000,289.200000,177.990000,288.700000C176.770000,287.830000,175.080000,287.450000,173.990000,287.300000L172.070000,290.280000C172.190000,290.500000,172.250000,290.740000,172.250000,290.940000C172.250000,291.690000,171.750000,292.440000,171.750000,292.940000C171.750000,292.940000,174.250000,294.940000,174.250000,296.930000C174.250000,299.680000,171.500000,297.930000,171.500000,302.170000C171.500000,302.920000,171.750000,305.410000,171.500000,306.660000L171,306.910000C170.250000,306.910000,168.010000,306.660000,168.010000,304.410000C168.010000,303.660000,168.760000,303.910000,168.760000,303.410000C167.710000,302.660000,166.930000,301.110000,165.940000,299.830000L138.090000,343.210000L165.530000,322.890000C165.530000,322.800000,165.520000,322.720000,165.520000,322.640000C165.520000,322.640000,165.520000,322.390000,165.020000,322.390000C164.770000,322.390000,163.270000,323.140000,163.270000,322.640000C163.270000,322.140000,164.270000,320.140000,164.270000,319.400000C164.270000,318.650000,164.020000,318.400000,163.270000,318.650000C163.270000,317.900000,163.520000,317.650000,163.520000,317.400000L164.770000,317.400000C166.690000,317.880000,168.370000,318.600000,170.050000,319.540000L195.030000,301.030000C194.940000,301,194.840000,300.980000,194.730000,300.930000ZM159.540000,323.140000C159.040000,324.640000,158.290000,326.130000,157.290000,327.630000L156.540000,327.630000L156.540000,324.880000C157.290000,323.130000,157.790000,318.640000,160.530000,319.140000L162.030000,319.140000C160.790000,319.900000,159.790000,322.140000,159.540000,323.140000Z" fill="rgb(221,255,255)" stroke="none" stroke-width="1"/><path id="e5nc9mddbrgr63" d="M169.590000,319.890000C169.560000,319.890000,169.550000,319.890000,169.520000,319.890000C169.520000,319.890000,167.270000,319.140000,167.270000,319.640000C167.270000,320.390000,167.770000,320.140000,167.770000,320.640000C167.770000,320.840000,167.690000,321.100000,167.560000,321.390000L169.590000,319.890000Z" fill="rgb(221,255,255)" stroke="none" stroke-width="1"/><path id="e5nc9mddbrgr64" d="M178.510000,280.710000C179.260000,281.210000,180.010000,281.460000,180.510000,281.710000C181.010000,281.210000,181.260000,280.710000,181.260000,280.210000C180.620000,279.840000,179.910000,279.520000,179.200000,279.210000L178.180000,280.790000L178.510000,280.710000Z" fill="rgb(221,255,255)" stroke="none" stroke-width="1"/><path id="e5nc9mddbrgr65" d="M200.220000,278.720000C200.220000,278.970000,199.970000,279.220000,199.720000,279.470000C199.470000,279.220000,199.220000,279.220000,198.970000,278.970000C200.400000,279.990000,201.650000,280.980000,202.880000,281.860000L202.880000,280.510000C201.860000,279.530000,200.880000,279.040000,200.220000,278.720000Z" fill="rgb(221,255,255)" stroke="none" stroke-width="1"/><path id="e5nc9mddbrgr66" d="M179.690000,273.140000C180.420000,273.250000,181.700000,272.970000,182.500000,273.970000C182,274.470000,181.500000,274.470000,181.250000,274.470000C182.500000,274.720000,184.490000,275.220000,184.990000,277.220000C185.240000,277.470000,185.240000,278.470000,185.490000,278.970000C188.980000,282.460000,192.730000,285.960000,196.470000,288.200000C197.220000,288.700000,198.470000,288.700000,199.220000,289.200000C198.220000,286.450000,196.230000,285.210000,196.230000,284.960000C196.230000,283.210000,196.230000,283.210000,194.230000,280.970000C193.980000,280.470000,193.480000,280.470000,193.480000,279.720000C193.480000,279.220000,193.730000,279.470000,193.980000,279.220000L194.980000,280.220000L194.980000,278.970000C194.730000,278.470000,194.230000,277.720000,193.730000,277.220000C193.980000,276.970000,194.230000,277.220000,194.230000,276.470000C194.230000,275.970000,193.230000,274.720000,192.730000,273.970000C192.480000,273.970000,191.980000,273.720000,191.730000,273.470000C190.480000,272.220000,188.240000,271.470000,187.240000,270.720000C186.490000,268.220000,182.250000,267.230000,180.500000,265.730000C180.240000,265.560000,179.960000,265.340000,179.690000,265.130000L179.690000,273.140000Z" fill="rgb(221,255,255)" stroke="none" stroke-width="1"/><path id="e5nc9mddbrgr67" d="M181.250000,285.210000C181.500000,284.960000,181.500000,284.710000,181.500000,284.460000C180.160000,283.340000,178.840000,282.240000,177.860000,281.300000L175.500000,284.970000L180.500000,286.460000C180.250000,285.960000,179.750000,285.460000,179.500000,285.210000L180,284.710000C180.510000,284.960000,181,284.960000,181.250000,285.210000Z" fill="rgb(221,255,255)" stroke="none" stroke-width="1"/></g><g id="e5nc9mddbrgr68"><path id="e5nc9mddbrgr69" d="M179.510000,328.130000C180.510000,327.130000,182.500000,326.630000,183.250000,325.630000C184.250000,324.130000,183.750000,322.390000,184.500000,321.140000C184.750000,320.640000,188.490000,318.640000,189.740000,318.640000C190.490000,318.640000,190.240000,318.890000,190.490000,319.140000C190.240000,319.390000,189.490000,319.640000,189.490000,320.140000C189.490000,320.890000,189.740000,320.640000,189.740000,320.890000C191.990000,320.390000,196.230000,316.650000,196.230000,316.400000C196.230000,315.650000,195.730000,314.900000,195.230000,314.650000C194.480000,315.650000,193.980000,316.650000,193.230000,317.400000C191.980000,316.400000,189.490000,314.900000,189.490000,314.160000C189.490000,313.660000,189.740000,313.160000,189.740000,312.660000C189.240000,312.660000,188.740000,312.660000,188.490000,312.410000C189.240000,311.910000,189.990000,311.660000,190.240000,311.410000C189.990000,311.160000,189.990000,310.910000,189.990000,310.660000L189.970000,310.660000L143.710000,343.220000L179.260000,328.470000C179.340000,328.330000,179.420000,328.210000,179.510000,328.130000Z" fill="rgb(221,255,255)" stroke="none" stroke-width="1"/><path id="e5nc9mddbrgr70" d="M197,306.430000C196.960000,306.210000,196.950000,305.990000,196.940000,305.760000L196.710000,305.920000C196.830000,306.120000,196.920000,306.280000,197,306.430000Z" fill="rgb(221,255,255)" stroke="none" stroke-width="1"/><path id="e5nc9mddbrgr71" d="M201.220000,314.160000C201.720000,313.660000,201.970000,313.160000,202.220000,312.660000C202.470000,313.160000,202.720000,313.660000,202.720000,313.910000L203.720000,313.910000L203.720000,312.910000C202.720000,312.410000,201.970000,310.910000,201.220000,309.170000C200.470000,308.670000,199.220000,308.670000,198.230000,308.420000C197.690000,307.980000,197.390000,307.560000,197.210000,307.130000C197.230000,307.340000,197.240000,307.580000,197.240000,307.920000C197.240000,308.920000,197.240000,309.420000,196.240000,310.670000C197.740000,311.920000,199.230000,312.920000,200.730000,312.670000C200.980000,313.170000,200.730000,313.670000,200.730000,313.670000L201.220000,314.160000Z" fill="rgb(221,255,255)" stroke="none" stroke-width="1"/></g></g><g id="e5nc9mddbrgr72"><g id="e5nc9mddbrgr73" clip-path="url(#e5nc9mddbrgr92)"><g id="e5nc9mddbrgr74"><g id="e5nc9mddbrgr75"><path id="e5nc9mddbrgr76" d="M273.890000,235.410000C273.730000,235.420000,273.560000,235.420000,273.390000,235.420000L268.370000,235.380000L268.300000,245.630000L266.640000,245.620000L266.850000,216.060000L274.610000,216.120000C276.860000,216.440000,278.770000,217.400000,280.340000,218.990000C282.210000,220.890000,283.130000,223.170000,283.120000,225.830000C283.100000,228.500000,282.140000,230.770000,280.250000,232.640000C278.930000,233.940000,277.430000,234.780000,275.740000,235.180000L282.480000,245.740000L280.430000,245.730000L273.890000,235.410000ZM268.490000,217.760000L268.380000,233.700000L273.400000,233.740000C275.590000,233.760000,277.480000,232.990000,279.040000,231.440000C280.600000,229.890000,281.400000,228.020000,281.420000,225.820000C281.430000,223.610000,280.670000,221.730000,279.120000,220.170000C277.570000,218.610000,275.700000,217.820000,273.510000,217.800000L268.490000,217.760000Z" fill="rgb(5,122,228)" stroke="none" stroke-width="1"/><path id="e5nc9mddbrgr77" d="M301.740000,216.320000L301.730000,217.980000L288.610000,217.880000L288.520000,230.170000L301.640000,230.270000L301.630000,231.930000L288.510000,231.830000L288.420000,244.120000L301.540000,244.210000L301.530000,245.870000L286.750000,245.770000L286.960000,216.210000L301.740000,216.320000Z" fill="rgb(5,122,228)" stroke="none" stroke-width="1"/><path id="e5nc9mddbrgr78" d="M330.230000,241.370000L331.480000,242.500000C328.580000,245.100000,325.170000,246.390000,321.270000,246.360000C317.080000,246.330000,313.530000,244.830000,310.600000,241.860000C307.670000,238.890000,306.220000,235.310000,306.250000,231.120000C306.280000,226.950000,307.780000,223.390000,310.750000,220.460000C313.720000,217.530000,317.300000,216.070000,321.490000,216.100000C325.390000,216.130000,328.780000,217.460000,331.640000,220.110000L330.370000,221.250000C327.850000,218.980000,324.880000,217.830000,321.470000,217.800000C317.760000,217.770000,314.590000,219.060000,311.940000,221.670000C309.300000,224.280000,307.970000,227.430000,307.940000,231.140000C307.910000,234.860000,309.200000,238.040000,311.810000,240.690000C314.410000,243.330000,317.570000,244.660000,321.280000,244.690000C324.700000,244.710000,327.680000,243.600000,330.230000,241.370000Z" fill="rgb(5,122,228)" stroke="none" stroke-width="1"/><path id="e5nc9mddbrgr79" d="M353.910000,216.690000L355.590000,216.700000L355.440000,237.950000C355.120000,240.200000,354.160000,242.110000,352.570000,243.670000C350.670000,245.540000,348.390000,246.460000,345.730000,246.450000C343.050000,246.430000,340.790000,245.470000,338.920000,243.580000C337.050000,241.680000,336.120000,239.400000,336.140000,236.740000L336.280000,216.570000L337.960000,216.580000L337.820000,236.750000C337.800000,238.940000,338.570000,240.830000,340.120000,242.390000C341.670000,243.960000,343.540000,244.750000,345.740000,244.770000C347.940000,244.780000,349.830000,244.020000,351.390000,242.470000C352.950000,240.920000,353.740000,239.050000,353.760000,236.860000L353.910000,216.690000Z" fill="rgb(5,122,228)" stroke="none" stroke-width="1"/><path id="e5nc9mddbrgr80" d="M368.180000,236.080000C368.020000,236.090000,367.850000,236.100000,367.680000,236.090000L362.660000,236.050000L362.590000,246.300000L360.930000,246.290000L361.140000,216.730000L368.900000,216.780000C371.150000,217.110000,373.060000,218.060000,374.630000,219.650000C376.500000,221.550000,377.420000,223.830000,377.410000,226.490000C377.390000,229.160000,376.430000,231.430000,374.540000,233.310000C373.220000,234.610000,371.720000,235.450000,370.030000,235.840000L376.770000,246.400000L374.720000,246.390000L368.180000,236.080000ZM362.780000,218.440000L362.670000,234.380000L367.690000,234.420000C369.880000,234.430000,371.770000,233.670000,373.330000,232.120000C374.900000,230.570000,375.690000,228.700000,375.710000,226.490000C375.720000,224.290000,374.960000,222.400000,373.410000,220.840000C371.860000,219.280000,369.990000,218.490000,367.800000,218.470000L362.780000,218.440000Z" fill="rgb(5,122,228)" stroke="none" stroke-width="1"/><path id="e5nc9mddbrgr81" d="M388.510000,230.130000C386.410000,229.410000,384.750000,228.440000,383.540000,227.210000C382.330000,225.980000,381.730000,224.500000,381.750000,222.760000C381.760000,221.060000,382.380000,219.600000,383.610000,218.390000C384.840000,217.170000,386.320000,216.570000,388.060000,216.580000C389.790000,216.590000,391.260000,217.210000,392.480000,218.440000C393.150000,219.100000,393.610000,219.830000,393.870000,220.650000L392.370000,221.230000C392.150000,220.630000,391.790000,220.070000,391.290000,219.560000C390.390000,218.670000,389.310000,218.210000,388.040000,218.200000C386.770000,218.190000,385.680000,218.630000,384.780000,219.520000C383.880000,220.410000,383.420000,221.490000,383.410000,222.770000C383.400000,224.040000,383.840000,225.130000,384.730000,226.030000C385.560000,226.860000,386.720000,227.620000,388.190000,228.330000C390.550000,229.110000,392.530000,230.310000,394.130000,231.940000C395.830000,233.650000,396.670000,235.710000,396.660000,238.130000C396.640000,240.550000,395.770000,242.620000,394.040000,244.320000C392.320000,246.020000,390.250000,246.860000,387.830000,246.840000C385.420000,246.830000,383.360000,245.950000,381.660000,244.210000C380.300000,242.840000,379.500000,241.240000,379.240000,239.430000L380.810000,238.870000C380.970000,240.470000,381.650000,241.880000,382.830000,243.080000C384.210000,244.480000,385.880000,245.190000,387.840000,245.200000C389.810000,245.210000,391.500000,244.530000,392.900000,243.150000C394.300000,241.770000,395.010000,240.090000,395.020000,238.120000C395.030000,236.160000,394.350000,234.480000,392.970000,233.080000C391.770000,231.850000,390.280000,230.870000,388.510000,230.130000Z" fill="rgb(5,122,228)" stroke="none" stroke-width="1"/><path id="e5nc9mddbrgr82" d="M425.900000,221.220000C428.840000,224.210000,430.300000,227.790000,430.270000,231.980000C430.240000,236.170000,428.730000,239.730000,425.750000,242.670000C422.770000,245.610000,419.180000,247.060000,414.990000,247.030000C410.800000,247,407.240000,245.490000,404.300000,242.510000C401.360000,239.530000,399.910000,235.940000,399.940000,231.750000C399.970000,227.560000,401.470000,224,404.460000,221.060000C407.450000,218.120000,411.030000,216.670000,415.220000,216.700000C419.400000,216.740000,422.970000,218.240000,425.900000,221.220000ZM415.200000,218.410000C411.480000,218.380000,408.300000,219.680000,405.650000,222.290000C403,224.900000,401.660000,228.070000,401.640000,231.780000C401.610000,235.500000,402.900000,238.690000,405.520000,241.340000C408.130000,243.990000,411.290000,245.330000,415.010000,245.360000C418.730000,245.390000,421.910000,244.090000,424.560000,241.480000C427.210000,238.860000,428.550000,235.690000,428.570000,231.970000C428.600000,228.250000,427.300000,225.070000,424.690000,222.420000C422.080000,219.770000,418.920000,218.430000,415.200000,218.410000Z" fill="rgb(5,122,228)" stroke="none" stroke-width="1"/><path id="e5nc9mddbrgr83" d="M442.710000,230.520000C440.610000,229.800000,438.960000,228.830000,437.740000,227.600000C436.530000,226.370000,435.930000,224.890000,435.950000,223.150000C435.960000,221.450000,436.580000,219.990000,437.810000,218.780000C439.040000,217.560000,440.520000,216.960000,442.260000,216.970000C443.980000,216.980000,445.460000,217.600000,446.680000,218.830000C447.350000,219.490000,447.810000,220.230000,448.070000,221.040000L446.570000,221.620000C446.350000,221.010000,445.990000,220.460000,445.490000,219.950000C444.590000,219.060000,443.510000,218.610000,442.250000,218.600000C440.980000,218.590000,439.890000,219.030000,438.990000,219.910000C438.090000,220.800000,437.630000,221.880000,437.620000,223.160000C437.610000,224.430000,438.050000,225.520000,438.940000,226.420000C439.770000,227.250000,440.930000,228.020000,442.400000,228.720000C444.760000,229.500000,446.740000,230.710000,448.340000,232.330000C450.040000,234.040000,450.880000,236.100000,450.870000,238.520000C450.850000,240.950000,449.980000,243.010000,448.250000,244.710000C446.530000,246.410000,444.460000,247.250000,442.050000,247.230000C439.640000,247.210000,437.580000,246.330000,435.880000,244.600000C434.520000,243.230000,433.720000,241.630000,433.460000,239.820000L435.030000,239.260000C435.190000,240.860000,435.870000,242.260000,437.050000,243.470000C438.430000,244.870000,440.100000,245.580000,442.060000,245.590000C444.030000,245.600000,445.720000,244.920000,447.120000,243.540000C448.520000,242.160000,449.230000,240.480000,449.240000,238.510000C449.250000,236.550000,448.570000,234.870000,447.190000,233.470000C445.970000,232.240000,444.480000,231.260000,442.710000,230.520000Z" fill="rgb(5,122,228)" stroke="none" stroke-width="1"/><path id="e5nc9mddbrgr84" d="M263.610000,288.490000L263.840000,255.880000L268.970000,255.920000C271.940000,255.940000,274.120000,256.150000,275.490000,256.540000C277.440000,257.070000,278.980000,258.040000,280.130000,259.460000C281.280000,260.870000,281.840000,262.530000,281.830000,264.440000C281.820000,265.680000,281.550000,266.810000,281.020000,267.810000C280.490000,268.820000,279.630000,269.760000,278.440000,270.640000C280.410000,271.590000,281.850000,272.760000,282.760000,274.170000C283.660000,275.570000,284.110000,277.230000,284.100000,279.130000C284.090000,280.960000,283.600000,282.630000,282.640000,284.130000C281.680000,285.630000,280.450000,286.750000,278.950000,287.490000C277.450000,288.220000,275.380000,288.580000,272.750000,288.560000L263.610000,288.490000ZM269.920000,274.250000L269.860000,282.610000L271.420000,282.620000C274,282.640000,275.740000,282.320000,276.640000,281.680000C277.540000,281.040000,277.990000,280.090000,278,278.850000C278.010000,277.450000,277.490000,276.330000,276.450000,275.520000C275.400000,274.700000,273.660000,274.280000,271.210000,274.260000L269.920000,274.250000ZM270.010000,261.840000L269.960000,268.710000L271.320000,268.720000C272.830000,268.730000,273.960000,268.420000,274.700000,267.790000C275.440000,267.160000,275.810000,266.300000,275.820000,265.200000C275.830000,264.180000,275.490000,263.370000,274.790000,262.770000C274.100000,262.170000,273.040000,261.860000,271.610000,261.850000L270.010000,261.840000Z" fill="rgb(5,122,228)" stroke="none" stroke-width="1"/><path id="e5nc9mddbrgr85" d="M289.740000,256.060000L295.900000,256.100000L295.670000,288.710000L289.510000,288.670000L289.740000,256.060000Z" fill="rgb(5,122,228)" stroke="none" stroke-width="1"/><path id="e5nc9mddbrgr86" d="M302.650000,288.770000L302.880000,256.160000L308.010000,256.200000C310.980000,256.220000,313.160000,256.430000,314.530000,256.820000C316.480000,257.350000,318.020000,258.320000,319.170000,259.730000C320.320000,261.140000,320.880000,262.800000,320.870000,264.710000C320.860000,265.950000,320.590000,267.070000,320.060000,268.080000C319.530000,269.090000,318.670000,270.030000,317.480000,270.910000C319.450000,271.860000,320.890000,273.030000,321.800000,274.440000C322.700000,275.840000,323.150000,277.500000,323.140000,279.400000C323.130000,281.230000,322.640000,282.900000,321.680000,284.400000C320.720000,285.900000,319.490000,287.020000,317.990000,287.760000C316.490000,288.490000,314.420000,288.850000,311.790000,288.830000L302.650000,288.770000ZM308.960000,274.540000L308.900000,282.900000L310.460000,282.910000C313.040000,282.930000,314.780000,282.610000,315.680000,281.970000C316.580000,281.330000,317.030000,280.380000,317.040000,279.140000C317.050000,277.740000,316.530000,276.620000,315.490000,275.810000C314.440000,274.990000,312.700000,274.570000,310.250000,274.550000L308.960000,274.540000ZM309.050000,262.120000L309,268.990000L310.360000,269C311.870000,269.010000,313,268.700000,313.740000,268.070000C314.480000,267.440000,314.850000,266.580000,314.860000,265.480000C314.870000,264.460000,314.530000,263.650000,313.830000,263.050000C313.140000,262.440000,312.080000,262.140000,310.650000,262.130000L309.050000,262.120000Z" fill="rgb(5,122,228)" stroke="none" stroke-width="1"/><path id="e5nc9mddbrgr87" d="M329.220000,256.340000L335.430000,256.380000L335.240000,283.070000L344.280000,283.140000L344.240000,289.060000L328.990000,288.950000L329.220000,256.340000Z" fill="rgb(5,122,228)" stroke="none" stroke-width="1"/><path id="e5nc9mddbrgr88" d="M348.750000,256.480000L354.910000,256.520000L354.680000,289.130000L348.520000,289.090000L348.750000,256.480000Z" fill="rgb(5,122,228)" stroke="none" stroke-width="1"/><path id="e5nc9mddbrgr89" d="M391.830000,262.520000L387.460000,266.630000C384.530000,263.490000,381.220000,261.900000,377.520000,261.880000C374.410000,261.860000,371.770000,262.900000,369.620000,265.020000C367.470000,267.140000,366.390000,269.760000,366.360000,272.880000C366.350000,275.060000,366.800000,276.990000,367.730000,278.680000C368.660000,280.370000,369.990000,281.710000,371.710000,282.680000C373.430000,283.650000,375.350000,284.150000,377.460000,284.160000C379.260000,284.170000,380.910000,283.850000,382.410000,283.180000C383.900000,282.520000,385.550000,281.310000,387.350000,279.540000L391.520000,283.960000C389.090000,286.290000,386.810000,287.910000,384.660000,288.800000C382.510000,289.690000,380.060000,290.130000,377.310000,290.110000C372.240000,290.070000,368.110000,288.440000,364.900000,285.200000C361.690000,281.960000,360.110000,277.830000,360.140000,272.810000C360.160000,269.560000,360.920000,266.670000,362.410000,264.160000C363.900000,261.640000,366.020000,259.620000,368.780000,258.110000C371.530000,256.590000,374.490000,255.840000,377.650000,255.870000C380.340000,255.890000,382.930000,256.480000,385.410000,257.630000C387.910000,258.790000,390.040000,260.420000,391.830000,262.520000Z" fill="rgb(5,122,228)" stroke="none" stroke-width="1"/><path id="e5nc9mddbrgr90" d="M412.700000,256.120000C417.310000,256.150000,421.270000,257.850000,424.560000,261.220000C427.860000,264.580000,429.490000,268.670000,429.450000,273.470000C429.410000,278.230000,427.750000,282.240000,424.450000,285.520000C421.150000,288.790000,417.170000,290.410000,412.490000,290.370000C407.600000,290.340000,403.540000,288.610000,400.330000,285.210000C397.110000,281.800000,395.520000,277.770000,395.560000,273.110000C395.580000,269.990000,396.360000,267.130000,397.890000,264.530000C399.420000,261.920000,401.510000,259.870000,404.160000,258.360000C406.810000,256.850000,409.660000,256.100000,412.700000,256.120000ZM412.590000,262.200000C409.570000,262.180000,407.020000,263.210000,404.960000,265.290000C402.890000,267.370000,401.840000,270.030000,401.820000,273.270000C401.790000,276.880000,403.070000,279.740000,405.640000,281.850000C407.640000,283.510000,409.940000,284.340000,412.550000,284.360000C415.500000,284.380000,418.010000,283.340000,420.100000,281.220000C422.190000,279.110000,423.240000,276.490000,423.260000,273.370000C423.280000,270.270000,422.260000,267.630000,420.190000,265.470000C418.110000,263.310000,415.580000,262.220000,412.590000,262.200000Z" fill="rgb(5,122,228)" stroke="none" stroke-width="1"/><path id="e5nc9mddbrgr91" d="M452.520000,261.660000L447.890000,265.680000C446.290000,263.420000,444.660000,262.290000,442.980000,262.270000C442.170000,262.260000,441.500000,262.480000,440.980000,262.910000C440.460000,263.340000,440.200000,263.830000,440.190000,264.380000C440.190000,264.930000,440.370000,265.450000,440.730000,265.940000C441.230000,266.590000,442.730000,268,445.250000,270.160000C447.600000,272.160000,449.030000,273.410000,449.530000,273.940000C450.780000,275.220000,451.660000,276.440000,452.180000,277.610000C452.700000,278.770000,452.950000,280.040000,452.940000,281.420000C452.920000,284.100000,451.980000,286.300000,450.120000,288.030000C448.260000,289.760000,445.840000,290.620000,442.870000,290.590000C440.550000,290.580000,438.530000,289.990000,436.810000,288.840000C435.100000,287.690000,433.630000,285.890000,432.420000,283.450000L437.660000,280.340000C439.210000,283.230000,441,284.690000,443.040000,284.700000C444.110000,284.710000,445,284.400000,445.730000,283.790000C446.460000,283.170000,446.830000,282.460000,446.830000,281.650000C446.830000,280.910000,446.560000,280.170000,446.020000,279.430000C445.480000,278.690000,444.280000,277.550000,442.420000,276.010000C438.890000,273.090000,436.610000,270.840000,435.590000,269.260000C434.570000,267.680000,434.060000,266.100000,434.070000,264.540000C434.090000,262.280000,434.960000,260.350000,436.700000,258.740000C438.430000,257.130000,440.570000,256.340000,443.100000,256.360000C444.730000,256.370000,446.280000,256.760000,447.750000,257.520000C449.230000,258.270000,450.810000,259.660000,452.520000,261.660000Z" fill="rgb(5,122,228)" stroke="none" stroke-width="1"/></g></g><clipPath id="e5nc9mddbrgr92"><use id="e5nc9mddbrgr93" width="143.690002" height="58.090027" xlink:href="#e5nc9mddbrgr2" fill="rgb(0,0,0)" stroke="none" stroke-width="1"/></clipPath></g></g></g></svg>